<svg width="512" height="512" viewBox="0 0 512 512" fill="none" xmlns="http://www.w3.org/2000/svg">
  <!-- Brain circuit background -->
  <rect width="512" height="512" rx="128" fill="#1E293B" />
  
  <!-- Circuit pattern -->
  <path d="M128 128H384M128 256H384M128 384H384M256 128V384M192 128V192M320 128V192M192 320V384M320 320V384" 
    stroke="#94A3B8" stroke-width="8" stroke-linecap="round" />
  
  <!-- Nodes -->
  <circle cx="192" cy="128" r="16" fill="#38BDF8" />
  <circle cx="320" cy="128" r="16" fill="#38BDF8" />
  <circle cx="192" cy="384" r="16" fill="#38BDF8" />
  <circle cx="320" cy="384" r="16" fill="#38BDF8" />
  <circle cx="256" cy="256" r="24" fill="#22D3EE" />
  
  <!-- Pulse animation effect -->
  <circle cx="256" cy="256" r="48" stroke="#0EA5E9" stroke-width="4" stroke-dasharray="8 8" />
  <circle cx="256" cy="256" r="80" stroke="#0EA5E9" stroke-width="3" stroke-dasharray="12 12" stroke-opacity="0.6" />
  
  <!-- Letter H in the middle for Harsha -->
  <path d="M236 236H276M236 236V276M236 276H276M276 236V276" 
    stroke="#F8FAFC" stroke-width="12" stroke-linecap="round" stroke-linejoin="round" />
</svg> 